# xmcd
# 
# Track frame offsets:
#     150
#     21189
#     49262
#     62866
#     77473
#     106577
#     118470
#     138711
#     155253
#     181522
# 
# Disc length: 2837
# 
# Revision: 0
# Processed by: cddbd v1.5.2PL0 Copyright (c) Steve Scherf et al.
# Submitted via: fre:ac v1.0.31
# 
DISCID=7d0b130a
DTITLE=中島 みゆき - Sin ainaru Monoe
DYEAR=1979
DGENRE=J-POP
TTITLE0=01-裸足で走れ
TTITLE1=02-タクシードライバー
TTITLE2=03-泥海の中から
TTITLE3=04-信じ難いもの
TTITLE4=05-根雪(ねゆき)
TTITLE5=06-片想
TTITLE6=07-ダイヤル117
TTITLE7=08-小石のように
TTITLE8=09-狼になりたい
TTITLE9=10-断崖 -親愛なる者へ-
EXTD=YEAR: 1979\nアルバム名：親愛なる者へ
EXTT0=
EXTT1=
EXTT2=
EXTT3=
EXTT4=
EXTT5=
EXTT6=
EXTT7=
EXTT8=
EXTT9=
PLAYORDER=
